<svg xmlns="http://www.w3.org/2000/svg" width="32" height="32" viewBox="0 0 32 32">
  <rect x="5" y="8" width="10" height="2.5" rx="1.2" fill="#dc143c"/>
  <rect x="5" y="13" width="15" height="2.5" rx="1.2" fill="#ff6b35"/>
  <rect x="5" y="18" width="8" height="2.5" rx="1.2" fill="#f7931e"/>
  <circle cx="3.5" cy="9.2" r="1.8" fill="#dc143c"/>
  <circle cx="3.5" cy="14.2" r="1.8" fill="#ff6b35"/>
  <circle cx="3.5" cy="19.2" r="1.8" fill="#f7931e"/>
  <g transform="translate(17,9.5) scale(0.8)">
    <path d="M0 -3 Q1 -1 3 0 Q1 1 0 3 Q-1 1 -3 0 Q-1 -1 0 -3 Z" fill="#ff6b35"/>
    <path d="M0 -2 Q0.7 -0.7 2 0 Q0.7 0.7 0 2 Q-0.7 0.7 -2 0 Q-0.7 -0.7 0 -2 Z" fill="#ffd700" opacity="0.8"/>
    <path d="M0 -1.2 Q0.4 -0.4 1.2 0 Q0.4 0.4 0 1.2 Q-0.4 0.4 -1.2 0 Q-0.4 -0.4 0 -1.2 Z" fill="#dc143c"/>
  </g>
  <g transform="translate(22,14.5) scale(1.5)">
    <path d="M0 -3 Q1 -1 3 0 Q1 1 0 3 Q-1 1 -3 0 Q-1 -1 0 -3 Z" fill="#f7931e"/>
    <path d="M0 -2 Q0.7 -0.7 2 0 Q0.7 0.7 0 2 Q-0.7 0.7 -2 0 Q-0.7 -0.7 0 -2 Z" fill="#ffd700" opacity="0.9"/>
    <path d="M0 -1.2 Q0.4 -0.4 1.2 0 Q0.4 0.4 0 1.2 Q-0.4 0.4 -1.2 0 Q-0.4 -0.4 0 -1.2 Z" fill="#ff6b35"/>
  </g>
  <g transform="translate(14.5,19.5) scale(1.1)">
    <path d="M0 -3 Q1 -1 3 0 Q1 1 0 3 Q-1 1 -3 0 Q-1 -1 0 -3 Z" fill="#ffd700"/>
    <path d="M0 -2 Q0.7 -0.7 2 0 Q0.7 0.7 0 2 Q-0.7 0.7 -2 0 Q-0.7 -0.7 0 -2 Z" fill="#ff6b35" opacity="0.9"/>
    <path d="M0 -1.2 Q0.4 -0.4 1.2 0 Q0.4 0.4 0 1.2 Q-0.4 0.4 -1.2 0 Q-0.4 -0.4 0 -1.2 Z" fill="#f7931e"/>
  </g>
</svg>
