FILE: curated-delivery.svg
===========================
<svg width="24" height="24" viewBox="0 0 24 24" fill="none" xmlns="http://www.w3.org/2000/svg">
  <rect x="6" y="7" width="12" height="9" rx="1.5" fill="#00d4aa" opacity="0.8"/>
  <rect x="6.5" y="7.5" width="11" height="8" rx="1" fill="#00ffcc"/>
  <path d="M6.5 7.5 L12 12 L17.5 7.5" stroke="#008866" stroke-width="1" fill="none"/>
  <path d="M6.5 7.5 L12 11.5 L17.5 7.5 L17.5 8.5 L12 12.5 L6.5 8.5 Z" fill="#008866" opacity="0.6"/>
  <circle cx="9" cy="13" r="0.6" fill="#008866"/>
  <circle cx="12" cy="13" r="0.6" fill="#008866"/>
  <circle cx="15" cy="13" r="0.6" fill="#008866"/>
  <g transform="translate(5,5) scale(0.4)">
    <path d="M0 -3 Q1 -1 3 0 Q1 1 0 3 Q-1 1 -3 0 Q-1 -1 0 -3 Z" fill="#00bcd4"/>
    <path d="M0 -2 Q0.7 -0.7 2 0 Q0.7 0.7 0 2 Q-0.7 0.7 -2 0 Q-0.7 -0.7 0 -2 Z" fill="#ffffff" opacity="0.8"/>
    <path d="M0 -1.2 Q0.4 -0.4 1.2 0 Q0.4 0.4 0 1.2 Q-0.4 0.4 -1.2 0 Q-0.4 -0.4 0 -1.2 Z" fill="#0097a7"/>
  </g>
  <g transform="translate(19,4) scale(0.5)">
    <path d="M0 -3 Q1 -1 3 0 Q1 1 0 3 Q-1 1 -3 0 Q-1 -1 0 -3 Z" fill="#00bcd4"/>
    <path d="M0 -2 Q0.7 -0.7 2 0 Q0.7 0.7 0 2 Q-0.7 0.7 -2 0 Q-0.7 -0.7 0 -2 Z" fill="#ffffff" opacity="0.8"/>
    <path d="M0 -1.2 Q0.4 -0.4 1.2 0 Q0.4 0.4 0 1.2 Q-0.4 0.4 -1.2 0 Q-0.4 -0.4 0 -1.2 Z" fill="#26c6da"/>
  </g>
  <g transform="translate(4,18) scale(0.45)">
    <path d="M0 -3 Q1 -1 3 0 Q1 1 0 3 Q-1 1 -3 0 Q-1 -1 0 -3 Z" fill="#ffffff"/>
    <path d="M0 -2 Q0.7 -0.7 2 0 Q0.7 0.7 0 2 Q-0.7 0.7 -2 0 Q-0.7 -0.7 0 -2 Z" fill="#00bcd4" opacity="0.9"/>
    <path d="M0 -1.2 Q0.4 -0.4 1.2 0 Q0.4 0.4 0 1.2 Q-0.4 0.4 -1.2 0 Q-0.4 -0.4 0 -1.2 Z" fill="#0097a7"/>
  </g>
</svg>
