<?xml version="1.0" encoding="UTF-8"?>
<svg xmlns="http://www.w3.org/2000/svg" width="128" height="128" viewBox="0 0 24 24" fill="none">
  <!-- AI Brain outline -->
  <path d="M8 7 C6 7 5 8 5 10 C5 11 5.5 12 6 13 C6 15 7 17 9 17 L15 17 C17 17 18 15 18 13 C18.5 12 19 11 19 10 C19 8 18 7 16 7 C15 6 13 6 12 6 C11 6 9 6 8 7 Z" fill="#00d4aa" opacity="0.6"/>
  
  <!-- Neural network paths inside brain -->
  <circle cx="9" cy="10" r="0.8" fill="#00ffcc" opacity="0.8"/>
  <circle cx="12" cy="9" r="0.8" fill="#00ffcc" opacity="0.8"/>
  <circle cx="15" cy="10" r="0.8" fill="#00ffcc" opacity="0.8"/>
  <circle cx="10.5" cy="12.5" r="0.8" fill="#00ffcc" opacity="0.8"/>
  <circle cx="13.5" cy="12.5" r="0.8" fill="#00ffcc" opacity="0.8"/>
  
  <!-- Neural connections -->
  <path d="M9 10 L12 9" stroke="#008866" stroke-width="0.8" opacity="0.6"/>
  <path d="M12 9 L15 10" stroke="#008866" stroke-width="0.8" opacity="0.6"/>
  <path d="M9 10 L10.5 12.5" stroke="#008866" stroke-width="0.8" opacity="0.6"/>
  <path d="M15 10 L13.5 12.5" stroke="#008866" stroke-width="0.8" opacity="0.6"/>
  <path d="M10.5 12.5 L13.5 12.5" stroke="#008866" stroke-width="0.8" opacity="0.6"/>
  
  <!-- Lightning bolt cutting through -->
  <path d="M14 4 L11 8 L13 8 L10 14 L13 10 L11 10 L14 4 Z" fill="#ffeb3b" stroke="#ffc107" stroke-width="0.3"/>
  
  <!-- Small floating sparkles for AI effect -->
  <g transform="translate(5,5) scale(0.4)">
    <path d="M0 -3 Q1 -1 3 0 Q1 1 0 3 Q-1 1 -3 0 Q-1 -1 0 -3 Z" fill="#4da6ff"/>
    <path d="M0 -2 Q0.7 -0.7 2 0 Q0.7 0.7 0 2 Q-0.7 0.7 -2 0 Q-0.7 -0.7 0 -2 Z" fill="#ffffff" opacity="0.8"/>
    <path d="M0 -1.2 Q0.4 -0.4 1.2 0 Q0.4 0.4 0 1.2 Q-0.4 0.4 -1.2 0 Q-0.4 -0.4 0 -1.2 Z" fill="#0066cc"/>
  </g>
  <g transform="translate(19,5) scale(0.5)">
    <path d="M0 -3 Q1 -1 3 0 Q1 1 0 3 Q-1 1 -3 0 Q-1 -1 0 -3 Z" fill="#ffc107"/>
    <path d="M0 -2 Q0.7 -0.7 2 0 Q0.7 0.7 0 2 Q-0.7 0.7 -2 0 Q-0.7 -0.7 0 -2 Z" fill="#ffffff" opacity="0.8"/>
    <path d="M0 -1.2 Q0.4 -0.4 1.2 0 Q0.4 0.4 0 1.2 Q-0.4 0.4 -1.2 0 Q-0.4 -0.4 0 -1.2 Z" fill="#ffeb3b"/>
  </g>
  <g transform="translate(4,19) scale(0.45)">
    <path d="M0 -3 Q1 -1 3 0 Q1 1 0 3 Q-1 1 -3 0 Q-1 -1 0 -3 Z" fill="#ffffff"/>
    <path d="M0 -2 Q0.7 -0.7 2 0 Q0.7 0.7 0 2 Q-0.7 0.7 -2 0 Q-0.7 -0.7 0 -2 Z" fill="#00ffcc" opacity="0.9"/>
    <path d="M0 -1.2 Q0.4 -0.4 1.2 0 Q0.4 0.4 0 1.2 Q-0.4 0.4 -1.2 0 Q-0.4 -0.4 0 -1.2 Z" fill="#008866"/>
  </g>
</svg>
