<?xml version="1.0" encoding="UTF-8"?>
<svg xmlns="http://www.w3.org/2000/svg" width="128" height="128" viewBox="0 0 128 128" fill="none">
  <!-- Radar circles in grayscale -->
  <circle cx="64" cy="64" r="35" fill="none" stroke="#ffffff" stroke-width="4" opacity="0.4"/>
  <circle cx="64" cy="64" r="22.5" fill="none" stroke="#ffffff" stroke-width="4" opacity="0.6"/>
  <circle cx="64" cy="64" r="10" fill="none" stroke="#000000" stroke-width="4" opacity="0.8"/>
  
  <!-- Radar sweep line in white/gray -->
  <path d="M64 64 L99 29" stroke="#ffffff" stroke-width="6" opacity="0.7"/>
  <path d="M64 64 L99 29" stroke="#808080" stroke-width="3" opacity="0.5"/>
  
  <!-- Data points in grayscale -->
  <circle cx="79" cy="44" r="3.5" fill="#ffffff"/>
  <circle cx="86" cy="54" r="3" fill="#808080"/>
  <circle cx="84" cy="74" r="3" fill="#000000"/>
  <circle cx="74" cy="84" r="3" fill="#ffffff"/>
  <circle cx="49" cy="79" r="3" fill="#000000"/>
  <circle cx="44" cy="54" r="3" fill="#ffffff"/>
  
  <!-- Star 1 - Small (top left, close to radar) -->
  <g transform="translate(25,25) scale(2.1)">
    <path d="M0 -3 Q1 -1 3 0 Q1 1 0 3 Q-1 1 -3 0 Q-1 -1 0 -3 Z" fill="#00ffcc"/>
    <path d="M0 -2 Q0.7 -0.7 2 0 Q0.7 0.7 0 2 Q-0.7 0.7 -2 0 Q-0.7 -0.7 0 -2 Z" fill="#ffffff" opacity="0.8"/>
    <path d="M0 -1.2 Q0.4 -0.4 1.2 0 Q0.4 0.4 0 1.2 Q-0.4 0.4 -1.2 0 Q-0.4 -0.4 0 -1.2 Z" fill="#008866"/>
  </g>
  
  <!-- Star 2 - Large (top right, close to radar) -->
  <g transform="translate(105,20) scale(3.9)">
    <path d="M0 -3 Q1 -1 3 0 Q1 1 0 3 Q-1 1 -3 0 Q-1 -1 0 -3 Z" fill="#00ffcc"/>
    <path d="M0 -2 Q0.7 -0.7 2 0 Q0.7 0.7 0 2 Q-0.7 0.7 -2 0 Q-0.7 -0.7 0 -2 Z" fill="#ffffff" opacity="0.8"/>
    <path d="M0 -1.2 Q0.4 -0.4 1.2 0 Q0.4 0.4 0 1.2 Q-0.4 0.4 -1.2 0 Q-0.4 -0.4 0 -1.2 Z" fill="#00d4aa"/>
  </g>
  
  <!-- Star 3 - Medium (bottom left, close to radar) -->
  <g transform="translate(30,95) scale(3.0)">
    <path d="M0 -3 Q1 -1 3 0 Q1 1 0 3 Q-1 1 -3 0 Q-1 -1 0 -3 Z" fill="#ffffff"/>
    <path d="M0 -2 Q0.7 -0.7 2 0 Q0.7 0.7 0 2 Q-0.7 0.7 -2 0 Q-0.7 -0.7 0 -2 Z" fill="#00ffcc" opacity="0.9"/>
    <path d="M0 -1.2 Q0.4 -0.4 1.2 0 Q0.4 0.4 0 1.2 Q-0.4 0.4 -1.2 0 Q-0.4 -0.4 0 -1.2 Z" fill="#008866"/>
  </g>
</svg>
