<?xml version="1.0" encoding="UTF-8"?>
<svg xmlns="http://www.w3.org/2000/svg" width="31" height="31" viewBox="0 0 24 24" fill="none">
  <rect x="7" y="6" width="10" height="11" rx="1.5" fill="#00d4aa" opacity="0.8"/>
  <rect x="7.5" y="6.5" width="9" height="10" rx="1" fill="#00ffcc"/>
  <rect x="7.5" y="6.5" width="9" height="2.5" rx="1" fill="#008866"/>
  <circle cx="10" cy="11.5" r="0.6" fill="#008866"/>
  <circle cx="12" cy="11.5" r="0.6" fill="#008866"/>
  <circle cx="14" cy="11.5" r="0.6" fill="#008866"/>
  <circle cx="10" cy="13.5" r="0.6" fill="#008866"/>
  <circle cx="12" cy="13.5" r="0.6" fill="#008866"/>
  <circle cx="14" cy="13.5" r="0.6" fill="#008866"/>
  <circle cx="12" cy="11.5" r="0.9" fill="#00ffcc" stroke="#008866" stroke-width="0.6"/>
  <g transform="translate(4,3) scale(0.4)">
    <path d="M0 -3 Q1 -1 3 0 Q1 1 0 3 Q-1 1 -3 0 Q-1 -1 0 -3 Z" fill="#4da6ff"/>
    <path d="M0 -2 Q0.7 -0.7 2 0 Q0.7 0.7 0 2 Q-0.7 0.7 -2 0 Q-0.7 -0.7 0 -2 Z" fill="#ffffff" opacity="0.8"/>
    <path d="M0 -1.2 Q0.4 -0.4 1.2 0 Q0.4 0.4 0 1.2 Q-0.4 0.4 -1.2 0 Q-0.4 -0.4 0 -1.2 Z" fill="#0066cc"/>
  </g>
  <g transform="translate(20,4) scale(0.5)">
    <path d="M0 -3 Q1 -1 3 0 Q1 1 0 3 Q-1 1 -3 0 Q-1 -1 0 -3 Z" fill="#4da6ff"/>
    <path d="M0 -2 Q0.7 -0.7 2 0 Q0.7 0.7 0 2 Q-0.7 0.7 -2 0 Q-0.7 -0.7 0 -2 Z" fill="#ffffff" opacity="0.8"/>
    <path d="M0 -1.2 Q0.4 -0.4 1.2 0 Q0.4 0.4 0 1.2 Q-0.4 0.4 -1.2 0 Q-0.4 -0.4 0 -1.2 Z" fill="#0080ff"/>
  </g>
  <g transform="translate(4,20) scale(0.45)">
    <path d="M0 -3 Q1 -1 3 0 Q1 1 0 3 Q-1 1 -3 0 Q-1 -1 0 -3 Z" fill="#ffffff"/>
    <path d="M0 -2 Q0.7 -0.7 2 0 Q0.7 0.7 0 2 Q-0.7 0.7 -2 0 Q-0.7 -0.7 0 -2 Z" fill="#4da6ff" opacity="0.9"/>
    <path d="M0 -1.2 Q0.4 -0.4 1.2 0 Q0.4 0.4 0 1.2 Q-0.4 0.4 -1.2 0 Q-0.4 -0.4 0 -1.2 Z" fill="#0066cc"/>
  </g>
</svg>
