<?xml version="1.0" encoding="UTF-8"?>
<svg xmlns="http://www.w3.org/2000/svg" width="128" height="128" viewBox="0 0 24 24" fill="none">
  <!-- Cube face 1 (front) -->
  <rect x="9" y="9" width="6" height="6" fill="#00d4aa" stroke="#008866" stroke-width="0.5" opacity="0.9"/>
  <!-- Cube face 2 (top) -->
  <polygon points="9,9 15,9 12,6" fill="#00d4aa" stroke="#008866" stroke-width="0.5" opacity="0.9"/>
  <!-- Cube face 3 (side) -->
  <polygon points="15,9 15,15 12,12" fill="#00d4aa" stroke="#008866" stroke-width="0.5" opacity="0.9"/>
  <!-- Grid lines for data structure -->
  <path d="M10,10 H14" stroke="#4da6ff" stroke-width="0.2" opacity="0.5"/>
  <path d="M10,12 H14" stroke="#4da6ff" stroke-width="0.2" opacity="0.5"/>
  <path d="M10,14 H14" stroke="#4da6ff" stroke-width="0.2" opacity="0.5"/>
  <path d="M10,10 V14" stroke="#4da6ff" stroke-width="0.2" opacity="0.5"/>
  <path d="M12,10 V14" stroke="#4da6ff" stroke-width="0.2" opacity="0.5"/>
  <path d="M14,10 V14" stroke="#4da6ff" stroke-width="0.2" opacity="0.5"/>
  <!-- Star 1 (smallest, scale 0.4, top left) -->
  <g transform="translate(8,6) scale(0.4)">
    <path d="M0 -3 Q1 -1 3 0 Q1 1 0 3 Q-1 1 -3 0 Q-1 -1 0 -3 Z" fill="#00ffcc"/>
    <path d="M0 -2 Q0.7 -0.7 2 0 Q0.7 0.7 0 2 Q-0.7 0.7 -2 0 Q-0.7 -0.7 0 -2 Z" fill="#ffffff" opacity="0.8"/>
    <path d="M0 -1.2 Q0.4 -0.4 1.2 0 Q0.4 0.4 0 1.2 Q-0.4 0.4 -1.2 0 Q-0.4 -0.4 0 -1.2 Z" fill="#0066cc"/>
  </g>
  <!-- Star 2 (medium, scale 0.5, top right) -->
  <g transform="translate(16,8) scale(0.5)">
    <path d="M0 -3 Q1 -1 3 0 Q1 1 0 3 Q-1 1 -3 0 Q-1 -1 0 -3 Z" fill="#00ffcc"/>
    <path d="M0 -2 Q0.7 -0.7 2 0 Q0.7 0.7 0 2 Q-0.7 0.7 -2 0 Q-0.7 -0.7 0 -2 Z" fill="#ffffff" opacity="0.8"/>
    <path d="M0 -1.2 Q0.4 -0.4 1.2 0 Q0.4 0.4 0 1.2 Q-0.4 0.4 -1.2 0 Q-0.4 -0.4 0 -1.2 Z" fill="#0080ff"/>
  </g>
  <!-- Star 3 (largest, scale 0.45, bottom center) -->
  <g transform="translate(12,16) scale(0.45)">
    <path d="M0 -3 Q1 -1 3 0 Q1 1 0 3 Q-1 1 -3 0 Q-1 -1 0 -3 Z" fill="#ffffff"/>
    <path d="M0 -2 Q0.7 -0.7 2 0 Q0.7 0.7 0 2 Q-0.7 0.7 -2 0 Q-0.7 -0.7 0 -2 Z" fill="#00ffcc" opacity="0.9"/>
    <path d="M0 -1.2 Q0.4 -0.4 1.2 0 Q0.4 0.4 0 1.2 Q-0.4 0.4 -1.2 0 Q-0.4 -0.4 0 -1.2 Z" fill="#008866"/>
  </g>
</svg>
