<?xml version="1.0" encoding="UTF-8"?>
<svg xmlns="http://www.w3.org/2000/svg" width="128" height="128" viewBox="0 0 24 24" fill="none">
  <!-- AI Brain -->
  <path d="M9 6 Q10 4 12 6 Q14 4 15 6 Q14 8 12 8 Q10 8 9 6 Z" fill="#00d4aa" stroke="#008866" stroke-width="0.5"/>
  <path d="M10 6 Q11 5 12 6 Q13 5 14 6" fill="none" stroke="#008866" stroke-width="0.3"/>
  <path d="M11 6 Q12 5 13 6" fill="none" stroke="#008866" stroke-width="0.3"/>
  <!-- Orbital path -->
  <ellipse cx="12" cy="12" rx="5" ry="3" stroke="#00ffcc" stroke-width="0.3" fill="none" opacity="0.4"/>
  <!-- Star 1 (smallest, scale 0.4, top left) -->
  <g transform="translate(8,6) scale(0.4)">
    <path d="M0 -3 Q1 -1 3 0 Q1 1 0 3 Q-1 1 -3 0 Q-1 -1 0 -3 Z" fill="#ffd700"/>
    <path d="M0 -2 Q0.7 -0.7 2 0 Q0.7 0.7 0 2 Q-0.7 0.7 -2 0 Q-0.7 -0.7 0 -2 Z" fill="#ffff00" opacity="0.8"/>
    <path d="M0 -1.2 Q0.4 -0.4 1.2 0 Q0.4 0.4 0 1.2 Q-0.4 0.4 -1.2 0 Q-0.4 -0.4 0 -1.2 Z" fill="#ff6200"/>
  </g>
  <!-- Star 2 (medium, scale 0.5, top right) -->
  <g transform="translate(16,8) scale(0.5)">
    <path d="M0 -3 Q1 -1 3 0 Q1 1 0 3 Q-1 1 -3 0 Q-1 -1 0 -3 Z" fill="#ffd700"/>
    <path d="M0 -2 Q0.7 -0.7 2 0 Q0.7 0.7 0 2 Q-0.7 0.7 -2 0 Q-0.7 -0.7 0 -2 Z" fill="#ffff00" opacity="0.8"/>
    <path d="M0 -1.2 Q0.4 -0.4 1.2 0 Q0.4 0.4 0 1.2 Q-0.4 0.4 -1.2 0 Q-0.4 -0.4 0 -1.2 Z" fill="#ff8c00"/>
  </g>
  <!-- Star 3 (largest, scale 0.45, bottom center) -->
  <g transform="translate(12,16) scale(0.45)">
    <path d="M0 -3 Q1 -1 3 0 Q1 1 0 3 Q-1 1 -3 0 Q-1 -1 0 -3 Z" fill="#ffd700"/>
    <path d="M0 -2 Q0.7 -0.7 2 0 Q0.7 0.7 0 2 Q-0.7 0.7 -2 0 Q-0.7 -0.7 0 -2 Z" fill="#ffff00" opacity="0.9"/>
    <path d="M0 -1.2 Q0.4 -0.4 1.2 0 Q0.4 0.4 0 1.2 Q-0.4 0.4 -1.2 0 Q-0.4 -0.4 0 -1.2 Z" fill="#ff6200"/>
  </g>
</svg>
