<?xml version="1.0" encoding="UTF-8"?>
<svg xmlns="http://www.w3.org/2000/svg" width="24" height="24" viewBox="0 0 24 24" fill="none">
  <circle cx="12" cy="12" r="7" fill="none" stroke="#008866" stroke-width="0.8" opacity="0.4"/>
  <circle cx="12" cy="12" r="4.5" fill="none" stroke="#00d4aa" stroke-width="0.8" opacity="0.6"/>
  <circle cx="12" cy="12" r="2" fill="none" stroke="#00ffcc" stroke-width="0.8" opacity="0.8"/>
  <path d="M12 12 L17 9" stroke="#00ffcc" stroke-width="1.5" opacity="0.7"/>
  <path d="M12 12 L17 9" stroke="#ffffff" stroke-width="0.8" opacity="0.5"/>
  <circle cx="15" cy="8" r="0.7" fill="#00ffcc"/>
  <circle cx="16.5" cy="10" r="0.6" fill="#00d4aa"/>
  <circle cx="16" cy="14" r="0.6" fill="#008866"/>
  <circle cx="14" cy="16" r="0.6" fill="#00d4aa"/>
  <circle cx="9" cy="15" r="0.6" fill="#008866"/>
  <circle cx="8" cy="10" r="0.6" fill="#00ffcc"/>
  <g transform="translate(5,6) scale(0.4)">
    <path d="M0 -3 Q1 -1 3 0 Q1 1 0 3 Q-1 1 -3 0 Q-1 -1 0 -3 Z" fill="#4caf50"/>
    <path d="M0 -2 Q0.7 -0.7 2 0 Q0.7 0.7 0 2 Q-0.7 0.7 -2 0 Q-0.7 -0.7 0 -2 Z" fill="#ffffff" opacity="0.8"/>
    <path d="M0 -1.2 Q0.4 -0.4 1.2 0 Q0.4 0.4 0 1.2 Q-0.4 0.4 -1.2 0 Q-0.4 -0.4 0 -1.2 Z" fill="#2e7d32"/>
  </g>
  <g transform="translate(19,4) scale(0.5)">
    <path d="M0 -3 Q1 -1 3 0 Q1 1 0 3 Q-1 1 -3 0 Q-1 -1 0 -3 Z" fill="#4caf50"/>
    <path d="M0 -2 Q0.7 -0.7 2 0 Q0.7 0.7 0 2 Q-0.7 0.7 -2 0 Q-0.7 -0.7 0 -2 Z" fill="#ffffff" opacity="0.8"/>
    <path d="M0 -1.2 Q0.4 -0.4 1.2 0 Q0.4 0.4 0 1.2 Q-0.4 0.4 -1.2 0 Q-0.4 -0.4 0 -1.2 Z" fill="#66bb6a"/>
  </g>
  <g transform="translate(4,18) scale(0.45)">
    <path d="M0 -3 Q1 -1 3 0 Q1 1 0 3 Q-1 1 -3 0 Q-1 -1 0 -3 Z" fill="#ffffff"/>
    <path d="M0 -2 Q0.7 -0.7 2 0 Q0.7 0.7 0 2 Q-0.7 0.7 -2 0 Q-0.7 -0.7 0 -2 Z" fill="#4caf50" opacity="0.9"/>
    <path d="M0 -1.2 Q0.4 -0.4 1.2 0 Q0.4 0.4 0 1.2 Q-0.4 0.4 -1.2 0 Q-0.4 -0.4 0 -1.2 Z" fill="#2e7d32"/>
  </g>
</svg>
