<?xml version="1.0" encoding="UTF-8"?>
<svg xmlns="http://www.w3.org/2000/svg" width="128" height="128" viewBox="0 0 24 24" fill="none">
  <!-- Stylized arrow with multiple heads and motion lines -->
  <path d="M4 16 Q8 12 12 8 Q16 4 20 8" fill="none" stroke="#00d4aa" stroke-width="1.5" stroke-linecap="round" marker-end="url(#arrowhead1)"/>
  <path d="M5 15 Q9 11 13 7 Q17 3 19 7" fill="none" stroke="#00d4aa" stroke-width="1.5" stroke-linecap="round" marker-end="url(#arrowhead2)"/>
  <path d="M6 14 Q10 10 14 6 Q18 2 18 6" fill="none" stroke="#00d4aa" stroke-width="1.5" stroke-linecap="round" marker-end="url(#arrowhead3)"/>
  <!-- Motion lines -->
  <path d="M5 15 L6 14 L7 13" stroke="#008866" stroke-width="0.5" stroke-dasharray="1 1" opacity="0.7"/>
  <path d="M9 11 L10 10 L11 9" stroke="#008866" stroke-width="0.5" stroke-dasharray="1 1" opacity="0.7"/>
  <path d="M13 7 L14 6 L15 5" stroke="#008866" stroke-width="0.5" stroke-dasharray="1 1" opacity="0.7"/>
  <!-- Arrowhead definitions -->
  <defs>
    <marker id="arrowhead1" markerWidth="4" markerHeight="3" refX="4" refY="1.5" orient="auto">
      <polygon points="0 0, 4 1.5, 0 3" fill="#008866"/>
    </marker>
    <marker id="arrowhead2" markerWidth="4" markerHeight="3" refX="4" refY="1.5" orient="auto">
      <polygon points="0 0, 4 1.5, 0 3" fill="#008866"/>
    </marker>
    <marker id="arrowhead3" markerWidth="4" markerHeight="3" refX="4" refY="1.5" orient="auto">
      <polygon points="0 0, 4 1.5, 0 3" fill="#008866"/>
    </marker>
  </defs>
  <!-- Star 1 (smallest, scale 0.4, bottom left offset) -->
  <g transform="translate(6,14) scale(0.4)">
    <path d="M0 -3 Q1 -1 3 0 Q1 1 0 3 Q-1 1 -3 0 Q-1 -1 0 -3 Z" fill="#00ffcc"/>
    <path d="M0 -2 Q0.7 -0.7 2 0 Q0.7 0.7 0 2 Q-0.7 0.7 -2 0 Q-0.7 -0.7 0 -2 Z" fill="#ffffff" opacity="0.8"/>
    <path d="M0 -1.2 Q0.4 -0.4 1.2 0 Q0.4 0.4 0 1.2 Q-0.4 0.4 -1.2 0 Q-0.4 -0.4 0 -1.2 Z" fill="#0066cc"/>
  </g>
  <!-- Star 2 (medium, scale 0.5, middle offset) -->
  <g transform="translate(12,10) scale(0.5)">
    <path d="M0 -3 Q1 -1 3 0 Q1 1 0 3 Q-1 1 -3 0 Q-1 -1 0 -3 Z" fill="#00ffcc"/>
    <path d="M0 -2 Q0.7 -0.7 2 0 Q0.7 0.7 0 2 Q-0.7 0.7 -2 0 Q-0.7 -0.7 0 -2 Z" fill="#ffffff" opacity="0.8"/>
    <path d="M0 -1.2 Q0.4 -0.4 1.2 0 Q0.4 0.4 0 1.2 Q-0.4 0.4 -1.2 0 Q-0.4 -0.4 0 -1.2 Z" fill="#0080ff"/>
  </g>
  <!-- Star 3 (largest, scale 0.45, top right offset) -->
  <g transform="translate(18,6) scale(0.45)">
    <path d="M0 -3 Q1 -1 3 0 Q1 1 0 3 Q-1 1 -3 0 Q-1 -1 0 -3 Z" fill="#ffffff"/>
    <path d="M0 -2 Q0.7 -0.7 2 0 Q0.7 0.7 0 2 Q-0.7 0.7 -2 0 Q-0.7 -0.7 0 -2 Z" fill="#00ffcc" opacity="0.9"/>
    <path d="M0 -1.2 Q0.4 -0.4 1.2 0 Q0.4 0.4 0 1.2 Q-0.4 0.4 -1.2 0 Q-0.4 -0.4 0 -1.2 Z" fill="#008866"/>
  </g>
</svg>
