<?xml version="1.0" encoding="UTF-8"?>
<svg xmlns="http://www.w3.org/2000/svg" width="128" height="128" viewBox="0 0 128 128" fill="none">
  <!-- Archive container in grayscale -->
  <rect x="32" y="32" width="64" height="64" rx="2.7" fill="#000000" opacity="0.4"/>
  <rect x="34.7" y="34.7" width="58.7" height="58.7" rx="1.6" fill="#808080" opacity="0.6"/>
  
  <!-- Archive divider lines in black -->
  <rect x="34.7" y="53.3" width="58.7" height="3.2" fill="#000000"/>
  <rect x="34.7" y="72" width="58.7" height="3.2" fill="#000000"/>
  
  <!-- Archive content bars in grayscale -->
  <rect x="37.3" y="36.3" width="9.6" height="14.9" rx="1.1" fill="#ffffff"/>
  <rect x="48" y="36.3" width="8" height="14.9" rx="1.1" fill="#808080"/>
  <rect x="57.1" y="36.3" width="10.7" height="14.9" rx="1.1" fill="#ffffff"/>
  <rect x="69.3" y="36.3" width="8.5" height="14.9" rx="1.1" fill="#808080"/>
  <rect x="78.9" y="36.3" width="9.1" height="14.9" rx="1.1" fill="#ffffff"/>
  
  <rect x="37.3" y="57.6" width="8.5" height="12.8" rx="1.1" fill="#808080"/>
  <rect x="46.9" y="57.6" width="10.1" height="12.8" rx="1.1" fill="#ffffff"/>
  <rect x="58.1" y="57.6" width="7.5" height="12.8" rx="1.1" fill="#808080"/>
  <rect x="66.7" y="57.6" width="11.2" height="12.8" rx="1.1" fill="#ffffff"/>
  <rect x="78.9" y="57.6" width="9.1" height="12.8" rx="1.1" fill="#808080"/>
  
  <rect x="37.3" y="76.3" width="9.1" height="13.3" rx="1.1" fill="#ffffff"/>
  <rect x="47.5" y="76.3" width="9.6" height="13.3" rx="1.1" fill="#808080"/>
  <rect x="58.1" y="76.3" width="8" height="13.3" rx="1.1" fill="#ffffff"/>
  <rect x="67.2" y="76.3" width="10.1" height="13.3" rx="1.1" fill="#808080"/>
  <rect x="78.4" y="76.3" width="9.6" height="13.3" rx="1.1" fill="#ffffff"/>
  
  <!-- Star 1 - Small (top left, close to archive) -->
  <g transform="translate(20,20) scale(2.1)">
    <path d="M0 -3 Q1 -1 3 0 Q1 1 0 3 Q-1 1 -3 0 Q-1 -1 0 -3 Z" fill="#00ffcc"/>
    <path d="M0 -2 Q0.7 -0.7 2 0 Q0.7 0.7 0 2 Q-0.7 0.7 -2 0 Q-0.7 -0.7 0 -2 Z" fill="#ffffff" opacity="0.8"/>
    <path d="M0 -1.2 Q0.4 -0.4 1.2 0 Q0.4 0.4 0 1.2 Q-0.4 0.4 -1.2 0 Q-0.4 -0.4 0 -1.2 Z" fill="#008866"/>
  </g>
  
  <!-- Star 2 - Large (top right, close to archive) -->
  <g transform="translate(100,20) scale(3.9)">
    <path d="M0 -3 Q1 -1 3 0 Q1 1 0 3 Q-1 1 -3 0 Q-1 -1 0 -3 Z" fill="#00ffcc"/>
    <path d="M0 -2 Q0.7 -0.7 2 0 Q0.7 0.7 0 2 Q-0.7 0.7 -2 0 Q-0.7 -0.7 0 -2 Z" fill="#ffffff" opacity="0.8"/>
    <path d="M0 -1.2 Q0.4 -0.4 1.2 0 Q0.4 0.4 0 1.2 Q-0.4 0.4 -1.2 0 Q-0.4 -0.4 0 -1.2 Z" fill="#00d4aa"/>
  </g>
  
  <!-- Star 3 - Medium (bottom left, close to archive) -->
  <g transform="translate(18,100) scale(3.0)">
    <path d="M0 -3 Q1 -1 3 0 Q1 1 0 3 Q-1 1 -3 0 Q-1 -1 0 -3 Z" fill="#ffffff"/>
    <path d="M0 -2 Q0.7 -0.7 2 0 Q0.7 0.7 0 2 Q-0.7 0.7 -2 0 Q-0.7 -0.7 0 -2 Z" fill="#00ffcc" opacity="0.9"/>
    <path d="M0 -1.2 Q0.4 -0.4 1.2 0 Q0.4 0.4 0 1.2 Q-0.4 0.4 -1.2 0 Q-0.4 -0.4 0 -1.2 Z" fill="#008866"/>
  </g>
</svg>
