<?xml version="1.0" encoding="UTF-8"?>
<svg xmlns="http://www.w3.org/2000/svg" width="24" height="24" viewBox="0 0 24 24" fill="none">
  <rect x="6" y="6" width="12" height="12" rx="0.5" fill="#008866" opacity="0.4"/>
  <rect x="6.5" y="6.5" width="11" height="11" rx="0.3" fill="#00d4aa" opacity="0.6"/>
  <rect x="6.5" y="10" width="11" height="0.6" fill="#008866"/>
  <rect x="6.5" y="13.5" width="11" height="0.6" fill="#008866"/>
  <rect x="7" y="6.8" width="1.8" height="2.8" rx="0.2" fill="#00ffcc"/>
  <rect x="9" y="6.8" width="1.5" height="2.8" rx="0.2" fill="#00d4aa"/>
  <rect x="10.7" y="6.8" width="2" height="2.8" rx="0.2" fill="#00ffcc"/>
  <rect x="13" y="6.8" width="1.6" height="2.8" rx="0.2" fill="#00d4aa"/>
  <rect x="14.8" y="6.8" width="1.7" height="2.8" rx="0.2" fill="#00ffcc"/>
  <rect x="7" y="10.8" width="1.6" height="2.4" rx="0.2" fill="#00d4aa"/>
  <rect x="8.8" y="10.8" width="1.9" height="2.4" rx="0.2" fill="#00ffcc"/>
  <rect x="10.9" y="10.8" width="1.4" height="2.4" rx="0.2" fill="#00d4aa"/>
  <rect x="12.5" y="10.8" width="2.1" height="2.4" rx="0.2" fill="#00ffcc"/>
  <rect x="14.8" y="10.8" width="1.7" height="2.4" rx="0.2" fill="#00d4aa"/>
  <rect x="7" y="14.3" width="1.7" height="2.5" rx="0.2" fill="#00ffcc"/>
  <rect x="8.9" y="14.3" width="1.8" height="2.5" rx="0.2" fill="#00d4aa"/>
  <rect x="10.9" y="14.3" width="1.5" height="2.5" rx="0.2" fill="#00ffcc"/>
  <rect x="12.6" y="14.3" width="1.9" height="2.5" rx="0.2" fill="#00d4aa"/>
  <rect x="14.7" y="14.3" width="1.8" height="2.5" rx="0.2" fill="#00ffcc"/>
  <g transform="translate(4,4) scale(0.4)">
    <path d="M0 -3 Q1 -1 3 0 Q1 1 0 3 Q-1 1 -3 0 Q-1 -1 0 -3 Z" fill="#ff8f00"/>
    <path d="M0 -2 Q0.7 -0.7 2 0 Q0.7 0.7 0 2 Q-0.7 0.7 -2 0 Q-0.7 -0.7 0 -2 Z" fill="#ffffff" opacity="0.8"/>
    <path d="M0 -1.2 Q0.4 -0.4 1.2 0 Q0.4 0.4 0 1.2 Q-0.4 0.4 -1.2 0 Q-0.4 -0.4 0 -1.2 Z" fill="#ef6c00"/>
  </g>
  <g transform="translate(20,4) scale(0.5)">
    <path d="M0 -3 Q1 -1 3 0 Q1 1 0 3 Q-1 1 -3 0 Q-1 -1 0 -3 Z" fill="#ff8f00"/>
    <path d="M0 -2 Q0.7 -0.7 2 0 Q0.7 0.7 0 2 Q-0.7 0.7 -2 0 Q-0.7 -0.7 0 -2 Z" fill="#ffffff" opacity="0.8"/>
    <path d="M0 -1.2 Q0.4 -0.4 1.2 0 Q0.4 0.4 0 1.2 Q-0.4 0.4 -1.2 0 Q-0.4 -0.4 0 -1.2 Z" fill="#ffb300"/>
  </g>
  <g transform="translate(3,19) scale(0.45)">
    <path d="M0 -3 Q1 -1 3 0 Q1 1 0 3 Q-1 1 -3 0 Q-1 -1 0 -3 Z" fill="#ffffff"/>
    <path d="M0 -2 Q0.7 -0.7 2 0 Q0.7 0.7 0 2 Q-0.7 0.7 -2 0 Q-0.7 -0.7 0 -2 Z" fill="#ff8f00" opacity="0.9"/>
    <path d="M0 -1.2 Q0.4 -0.4 1.2 0 Q0.4 0.4 0 1.2 Q-0.4 0.4 -1.2 0 Q-0.4 -0.4 0 -1.2 Z" fill="#ef6c00"/>
  </g>
</svg>
