FILE: pmo-relevance-analysis.svg
=================================
<svg width="24" height="24" viewBox="0 0 24 24" fill="none" xmlns="http://www.w3.org/2000/svg">
  <circle cx="12" cy="12" r="6" fill="#008866" opacity="0.3"/>
  <circle cx="12" cy="12" r="4.5" fill="#00d4aa" opacity="0.5"/>
  <circle cx="12" cy="12" r="3" fill="#00ffcc" opacity="0.7"/>
  <circle cx="12" cy="12" r="1.5" fill="#ffffff"/>
  <rect x="7.5" y="6" width="2.5" height="1.5" rx="0.3" fill="#00ffcc" opacity="0.8"/>
  <rect x="14" y="6.5" width="2.5" height="1.5" rx="0.3" fill="#00d4aa" opacity="0.8"/>
  <rect x="6.5" y="16" width="2.5" height="1.5" rx="0.3" fill="#008866" opacity="0.8"/>
  <rect x="15" y="15.5" width="2.5" height="1.5" rx="0.3" fill="#00ffcc" opacity="0.8"/>
  <path d="M9 7.5 L10.5 9.5" stroke="#00ffcc" stroke-width="1.2" opacity="0.7"/>
  <path d="M15 8 L13.5 9.5" stroke="#00d4aa" stroke-width="1.2" opacity="0.7"/>
  <path d="M8.5 16 L10.5 14.5" stroke="#008866" stroke-width="1.2" opacity="0.7"/>
  <path d="M15.5 15.5 L13.5 14.5" stroke="#00ffcc" stroke-width="1.2" opacity="0.7"/>
  <g transform="translate(5,4) scale(0.4)">
    <path d="M0 -3 Q1 -1 3 0 Q1 1 0 3 Q-1 1 -3 0 Q-1 -1 0 -3 Z" fill="#e91e63"/>
    <path d="M0 -2 Q0.7 -0.7 2 0 Q0.7 0.7 0 2 Q-0.7 0.7 -2 0 Q-0.7 -0.7 0 -2 Z" fill="#ffffff" opacity="0.8"/>
    <path d="M0 -1.2 Q0.4 -0.4 1.2 0 Q0.4 0.4 0 1.2 Q-0.4 0.4 -1.2 0 Q-0.4 -0.4 0 -1.2 Z" fill="#ad1457"/>
  </g>
  <g transform="translate(19,5) scale(0.5)">
    <path d="M0 -3 Q1 -1 3 0 Q1 1 0 3 Q-1 1 -3 0 Q-1 -1 0 -3 Z" fill="#e91e63"/>
    <path d="M0 -2 Q0.7 -0.7 2 0 Q0.7 0.7 0 2 Q-0.7 0.7 -2 0 Q-0.7 -0.7 0 -2 Z" fill="#ffffff" opacity="0.8"/>
    <path d="M0 -1.2 Q0.4 -0.4 1.2 0 Q0.4 0.4 0 1.2 Q-0.4 0.4 -1.2 0 Q-0.4 -0.4 0 -1.2 Z" fill="#f06292"/>
  </g>
  <g transform="translate(4,19) scale(0.45)">
    <path d="M0 -3 Q1 -1 3 0 Q1 1 0 3 Q-1 1 -3 0 Q-1 -1 0 -3 Z" fill="#ffffff"/>
    <path d="M0 -2 Q0.7 -0.7 2 0 Q0.7 0.7 0 2 Q-0.7 0.7 -2 0 Q-0.7 -0.7 0 -2 Z" fill="#e91e63" opacity="0.9"/>
    <path d="M0 -1.2 Q0.4 -0.4 1.2 0 Q0.4 0.4 0 1.2 Q-0.4 0.4 -1.2 0 Q-0.4 -0.4 0 -1.2 Z" fill="#ad1457"/>
  </g>
</svg>
