<?xml version="1.0" encoding="UTF-8"?>
<svg xmlns="http://www.w3.org/2000/svg" width="48" height="48" viewBox="0 0 24 24" fill="none">
  <path d="M 7 13 A 5 5 0 0 1 17 13" fill="none" stroke="#008866" stroke-width="1.2" opacity="0.3"/>
  <path d="M 7 13 A 5 5 0 0 1 14.5 9.5" fill="none" stroke="#ffc107" stroke-width="1.8" stroke-linecap="round"/>
  <line x1="7" y1="13" x2="7.6" y2="12.6" stroke="#ffeb3b" stroke-width="0.8"/>
  <line x1="9.5" y1="9.5" x2="10" y2="10" stroke="#ffeb3b" stroke-width="0.8"/>
  <line x1="12" y1="8.5" x2="12" y2="9.2" stroke="#ffeb3b" stroke-width="0.8"/>
  <line x1="14.5" y1="9.5" x2="14" y2="10" stroke="#ffeb3b" stroke-width="0.8"/>
  <line x1="17" y1="13" x2="16.4" y2="12.6" stroke="#ffeb3b" stroke-width="0.8"/>
  <line x1="12" y1="13" x2="14" y2="10" stroke="#ffc107" stroke-width="1.5" stroke-linecap="round"/>
  <circle cx="12" cy="13" r="0.6" fill="#ffc107"/>
  <text x="12" y="17" fill="#ffc107" font-size="3.5" font-weight="bold" text-anchor="middle">8/10</text>
  <g transform="translate(6,6) scale(0.4)">
    <path d="M0 -3 Q1 -1 3 0 Q1 1 0 3 Q-1 1 -3 0 Q-1 -1 0 -3 Z" fill="#ffc107"/>
    <path d="M0 -2 Q0.7 -0.7 2 0 Q0.7 0.7 0 2 Q-0.7 0.7 -2 0 Q-0.7 -0.7 0 -2 Z" fill="#ffffff" opacity="0.8"/>
    <path d="M0 -1.2 Q0.4 -0.4 1.2 0 Q0.4 0.4 0 1.2 Q-0.4 0.4 -1.2 0 Q-0.4 -0.4 0 -1.2 Z" fill="#f57f17"/>
  </g>
  <g transform="translate(18,6) scale(0.5)">
    <path d="M0 -3 Q1 -1 3 0 Q1 1 0 3 Q-1 1 -3 0 Q-1 -1 0 -3 Z" fill="#ffc107"/>
    <path d="M0 -2 Q0.7 -0.7 2 0 Q0.7 0.7 0 2 Q-0.7 0.7 -2 0 Q-0.7 -0.7 0 -2 Z" fill="#ffffff" opacity="0.8"/>
    <path d="M0 -1.2 Q0.4 -0.4 1.2 0 Q0.4 0.4 0 1.2 Q-0.4 0.4 -1.2 0 Q-0.4 -0.4 0 -1.2 Z" fill="#ffeb3b"/>
  </g>
  <g transform="translate(12,20) scale(0.45)">
    <path d="M0 -3 Q1 -1 3 0 Q1 1 0 3 Q-1 1 -3 0 Q-1 -1 0 -3 Z" fill="#ffffff"/>
    <path d="M0 -2 Q0.7 -0.7 2 0 Q0.7 0.7 0 2 Q-0.7 0.7 -2 0 Q-0.7 -0.7 0 -2 Z" fill="#ffc107" opacity="0.9"/>
    <path d="M0 -1.2 Q0.4 -0.4 1.2 0 Q0.4 0.4 0 1.2 Q-0.4 0.4 -1.2 0 Q-0.4 -0.4 0 -1.2 Z" fill="#f57f17"/>
  </g>
</svg>
