<?xml version="1.0" encoding="UTF-8"?>
<svg xmlns="http://www.w3.org/2000/svg" width="128" height="128" viewBox="0 0 128 128" fill="none">
  <!-- Original text lines -->
  <rect x="21.3" y="32" width="42.7" height="10.7" rx="5.3" fill="#008866"/>
  <rect x="21.3" y="53.3" width="64" height="10.7" rx="5.3" fill="#00d4aa"/>
  <rect x="21.3" y="74.7" width="32" height="10.7" rx="5.3" fill="#00ffcc"/>
  
  <!-- Original bullet points -->
  <circle cx="16" cy="37.3" r="8" fill="#008866"/>
  <circle cx="16" cy="58.7" r="8" fill="#00d4aa"/>
  <circle cx="16" cy="80" r="8" fill="#00ffcc"/>
  
  <!-- Quill feather overlay -->
  <!-- Quill shaft -->
  <rect x="67" y="20" width="3" height="45" rx="1.5" fill="#808080" transform="rotate(20 68.5 42.5)"/>
  
  <!-- Quill feather vanes -->
  <ellipse cx="72" cy="25" rx="8" ry="20" fill="#ffffff" opacity="0.8" transform="rotate(20 72 25)"/>
  <ellipse cx="70" cy="25" rx="6" ry="18" fill="#f0f0f0" transform="rotate(20 70 25)"/>
  
  <!-- Feather texture lines -->
  <path d="M62 30 Q70 25 78 35" stroke="#d0d0d0" stroke-width="1" fill="none" transform="rotate(20 70 32.5)"/>
  <path d="M64 35 Q70 30 76 38" stroke="#d0d0d0" stroke-width="1" fill="none" transform="rotate(20 70 36.5)"/>
  <path d="M66 40 Q70 35 74 42" stroke="#d0d0d0" stroke-width="1" fill="none" transform="rotate(20 70 40.5)"/>
  
  <!-- Quill tip -->
  <polygon points="65,60 67,60 66,68" fill="#333333" transform="rotate(20 66 64)"/>
  
  <!-- Original stars (positioned as in reference) -->
  <g transform="translate(69.3,37.3) scale(3.7)">
    <path d="M0 -3 Q1 -1 3 0 Q1 1 0 3 Q-1 1 -3 0 Q-1 -1 0 -3 Z" fill="#00ffcc"/>
    <path d="M0 -2 Q0.7 -0.7 2 0 Q0.7 0.7 0 2 Q-0.7 0.7 -2 0 Q-0.7 -0.7 0 -2 Z" fill="#ffffff" opacity="0.8"/>
    <path d="M0 -1.2 Q0.4 -0.4 1.2 0 Q0.4 0.4 0 1.2 Q-0.4 0.4 -1.2 0 Q-0.4 -0.4 0 -1.2 Z" fill="#008866"/>
  </g>
  
  <g transform="translate(90.7,58.7) scale(6.9)">
    <path d="M0 -3 Q1 -1 3 0 Q1 1 0 3 Q-1 1 -3 0 Q-1 -1 0 -3 Z" fill="#00ffcc"/>
    <path d="M0 -2 Q0.7 -0.7 2 0 Q0.7 0.7 0 2 Q-0.7 0.7 -2 0 Q-0.7 -0.7 0 -2 Z" fill="#ffffff" opacity="0.8"/>
    <path d="M0 -1.2 Q0.4 -0.4 1.2 0 Q0.4 0.4 0 1.2 Q-0.4 0.4 -1.2 0 Q-0.4 -0.4 0 -1.2 Z" fill="#00d4aa"/>
  </g>
  
  <g transform="translate(58.7,80) scale(5.3)">
    <path d="M0 -3 Q1 -1 3 0 Q1 1 0 3 Q-1 1 -3 0 Q-1 -1 0 -3 Z" fill="#ffffff"/>
    <path d="M0 -2 Q0.7 -0.7 2 0 Q0.7 0.7 0 2 Q-0.7 0.7 -2 0 Q-0.7 -0.7 0 -2 Z" fill="#00ffcc" opacity="0.9"/>
    <path d="M0 -1.2 Q0.4 -0.4 1.2 0 Q0.4 0.4 0 1.2 Q-0.4 0.4 -1.2 0 Q-0.4 -0.4 0 -1.2 Z" fill="#008866"/>
  </g>
</svg>
