FILE: the-problem.svg
=====================
<svg width="24" height="24" viewBox="0 0 24 24" fill="none" xmlns="http://www.w3.org/2000/svg">
  <circle cx="12" cy="12" r="6" fill="#008866" opacity="0.3"/>
  <rect x="8" y="8" width="3" height="2" rx="0.4" fill="#00d4aa" transform="rotate(15 9.5 9)"/>
  <rect x="11" y="7" width="3" height="2" rx="0.4" fill="#00ffcc" transform="rotate(-20 12.5 8)"/>
  <rect x="13" y="9" width="3" height="2" rx="0.4" fill="#008866" transform="rotate(30 14.5 10)"/>
  <rect x="9" y="12" width="3" height="2" rx="0.4" fill="#00d4aa" transform="rotate(-15 10.5 13)"/>
  <rect x="12" y="14" width="3" height="2" rx="0.4" fill="#00ffcc" transform="rotate(25 13.5 15)"/>
  <rect x="7" y="13" width="3" height="2" rx="0.4" fill="#008866" transform="rotate(-25 8.5 14)"/>
  <g transform="translate(5,5) scale(0.4)">
    <path d="M0 -3 Q1 -1 3 0 Q1 1 0 3 Q-1 1 -3 0 Q-1 -1 0 -3 Z" fill="#ffcc00"/>
    <path d="M0 -2 Q0.7 -0.7 2 0 Q0.7 0.7 0 2 Q-0.7 0.7 -2 0 Q-0.7 -0.7 0 -2 Z" fill="#ffffff" opacity="0.8"/>
    <path d="M0 -1.2 Q0.4 -0.4 1.2 0 Q0.4 0.4 0 1.2 Q-0.4 0.4 -1.2 0 Q-0.4 -0.4 0 -1.2 Z" fill="#ff6600"/>
  </g>
  <g transform="translate(19,5) scale(0.5)">
    <path d="M0 -3 Q1 -1 3 0 Q1 1 0 3 Q-1 1 -3 0 Q-1 -1 0 -3 Z" fill="#ffcc00"/>
    <path d="M0 -2 Q0.7 -0.7 2 0 Q0.7 0.7 0 2 Q-0.7 0.7 -2 0 Q-0.7 -0.7 0 -2 Z" fill="#ffffff" opacity="0.8"/>
    <path d="M0 -1.2 Q0.4 -0.4 1.2 0 Q0.4 0.4 0 1.2 Q-0.4 0.4 -1.2 0 Q-0.4 -0.4 0 -1.2 Z" fill="#ff6600"/>
  </g>
  <g transform="translate(6,19) scale(0.45)">
    <path d="M0 -3 Q1 -1 3 0 Q1 1 0 3 Q-1 1 -3 0 Q-1 -1 0 -3 Z" fill="#ffffff"/>
    <path d="M0 -2 Q0.7 -0.7 2 0 Q0.7 0.7 0 2 Q-0.7 0.7 -2 0 Q-0.7 -0.7 0 -2 Z" fill="#ffcc00" opacity="0.9"/>
    <path d="M0 -1.2 Q0.4 -0.4 1.2 0 Q0.4 0.4 0 1.2 Q-0.4 0.4 -1.2 0 Q-0.4 -0.4 0 -1.2 Z" fill="#ff6600"/>
  </g>
</svg>
