<?xml version="1.0" encoding="UTF-8"?>
<svg xmlns="http://www.w3.org/2000/svg" width="128" height="128" viewBox="0 0 128 128" fill="none">

  <!-- Psychedelic Layered Main Image (Rectangles) -->
  <!-- Base layer -->
  <rect x="37" y="86" width="6.5" height="15" fill="#000000"/>
  <rect x="49" y="80" width="6.5" height="20" fill="#000000"/>
  <rect x="61" y="74" width="6.5" height="25" fill="#808080"/>
  <rect x="73" y="68" width="6.5" height="30" fill="#808080"/>
  <rect x="85" y="62" width="6.5" height="35" fill="#ffffff"/>
  <rect x="97" y="80" width="6.5" height="20" fill="#ffffff"/>
  <rect x="34.5" y="101.2" width="60" height="3" fill="#808080"/>
  <!-- Inner psychedelic layers -->
  <rect x="38" y="87" width="5.5" height="14" fill="#ffffff" opacity="0.8"/>
  <rect x="50" y="81" width="5.5" height="19" fill="#ffffff" opacity="0.8"/>
  <rect x="62" y="75" width="5.5" height="24" fill="#000000" opacity="0.7"/>
  <rect x="74" y="69" width="5.5" height="29" fill="#000000" opacity="0.7"/>
  <rect x="86" y="63" width="5.5" height="34" fill="#808080" opacity="0.6"/>
  <rect x="98" y="81" width="5.5" height="19" fill="#808080" opacity="0.6"/>
  <rect x="35.5" y="102" width="58" height="2.5" fill="#ffffff" opacity="0.8"/>

  <!-- Star 1 - Small (top left, closer to center) -->
  <g transform="translate(38,60) scale(2.1)">
    <path d="M0 -3 Q1 -1 3 0 Q1 1 0 3 Q-1 1 -3 0 Q-1 -1 0 -3 Z" fill="#00ffcc"/>
    <path d="M0 -2 Q0.7 -0.7 2 0 Q0.7 0.7 0 2 Q-0.7 0.7 -2 0 Q-0.7 -0.7 0 -2 Z" fill="#ffffff" opacity="0.8"/>
    <path d="M0 -1.2 Q0.4 -0.4 1.2 0 Q0.4 0.4 0 1.2 Q-0.4 0.4 -1.2 0 Q-0.4 -0.4 0 -1.2 Z" fill="#008866"/>
  </g>

  <!-- Star 2 - Large (top right, just touching bars) -->
  <g transform="translate(100,50) scale(3.9)">
    <path d="M0 -3 Q1 -1 3 0 Q1 1 0 3 Q-1 1 -3 0 Q-1 -1 0 -3 Z" fill="#00ffcc"/>
    <path d="M0 -2 Q0.7 -0.7 2 0 Q0.7 0.7 0 2 Q-0.7 0.7 -2 0 Q-0.7 -0.7 0 -2 Z" fill="#ffffff" opacity="0.8"/>
    <path d="M0 -1.2 Q0.4 -0.4 1.2 0 Q0.4 0.4 0 1.2 Q-0.4 0.4 -1.2 0 Q-0.4 -0.4 0 -1.2 Z" fill="#00d4aa"/>
  </g>

  <!-- Star 3 - Medium (bottom right, just touching bars) -->
  <g transform="translate(85,95) scale(3.0)">
    <path d="M0 -3 Q1 -1 3 0 Q1 1 0 3 Q-1 1 -3 0 Q-1 -1 0 -3 Z" fill="#ffffff"/>
    <path d="M0 -2 Q0.7 -0.7 2 0 Q0.7 0.7 0 2 Q-0.7 0.7 -2 0 Q-0.7 -0.7 0 -2 Z" fill="#00ffcc" opacity="0.9"/>
    <path d="M0 -1.2 Q0.4 -0.4 1.2 0 Q0.4 0.4 0 1.2 Q-0.4 0.4 -1.2 0 Q-0.4 -0.4 0 -1.2 Z" fill="#008866"/>
  </g>

</svg>
